<svg width="190" height="160" viewBox="0 0 190 160" fill="none" xmlns="http://www.w3.org/2000/svg">
<path fill-rule="evenodd" clip-rule="evenodd" d="M76.0332 107.035C78.4 120.417 87.8165 130.496 100.16 137.114C113.99 144.529 131.478 147.52 146.112 146.133C151.166 145.44 156.057 144.292 160.822 142.69C167.693 140.383 174.248 137.262 180.674 133.728C181.306 133.426 181.54 132.716 181.194 132.146C180.85 131.574 180.056 131.357 179.42 131.655C173.893 133.908 168.312 135.848 162.614 137.329C156.962 138.802 151.232 139.759 145.341 139.983C132.116 141.066 116.41 138.136 103.996 131.351C93.791 125.774 85.8103 117.517 83.6974 106.485C86.9378 106.117 90.1234 105.541 93.2009 104.667C99.1557 102.977 104.716 100.198 109.531 95.7155C112.908 92.5707 116.682 87.3709 117.69 82.4725C118.587 78.1162 117.5 73.9817 113.3 71.0137C104.927 65.0988 96.3288 67.2255 89.2962 73.2746C81.3703 80.0919 75.7335 92.1509 75.4682 100.168C72.2812 100.272 69.0832 100.243 65.9334 100.193C52.9079 99.984 40.1869 95.3998 29.8986 87.4548C20.354 80.0848 12.9049 69.8266 9.20015 57.4557C6.0525 47.5338 6.93615 37.2655 9.31372 28.1012C10.9674 21.7244 13.4485 15.9347 15.9844 11.0359C18.2912 6.58132 20.4402 2.88147 22.8054 0.435898C22.9195 0.345073 22.928 0.187795 22.8268 0.0845655C22.7237 -0.0187806 22.5461 -0.0287462 22.4321 0.0620787C19.2948 1.95327 15.6473 4.91937 12.3196 9.09975C8.58545 13.7916 5.38049 19.8532 3.09636 26.5335C-0.316864 36.5211 -1.19222 48.0027 1.913 59.1153C6.01884 72.9152 14.3375 84.3511 24.9651 92.5856C36.6377 101.629 51.1003 106.811 65.8963 107.069C69.2454 107.128 72.6455 107.151 76.0332 107.035ZM83.203 99.5855C85.7781 99.2571 88.313 98.7746 90.7668 98.0727C95.5532 96.706 100.034 94.4819 103.899 90.8712C106.011 88.8972 108.379 85.8768 109.545 82.7895C110.425 80.4613 110.767 78.0274 108.535 76.4471C103.682 73.0081 98.7793 74.8004 94.693 78.3049C88.4119 83.6894 83.747 93.0237 83.203 99.5855Z" fill="#826A45"/>
<path fill-rule="evenodd" clip-rule="evenodd" d="M178.372 131.521C176.683 133.157 174.97 134.782 173.283 136.432C171.303 138.373 169.317 140.31 167.426 142.328C162.594 147.483 158.197 152.795 153.683 158.067C153.2 158.516 153.222 159.239 153.73 159.676C154.238 160.115 155.041 160.106 155.525 159.658C160.345 156.116 165.277 152.778 170.119 149.147C172.176 147.602 174.207 146.05 176.145 144.385C180.481 140.663 184.441 136.614 188.345 132.6C188.812 132.104 189.492 131.19 189.771 130.342C190.084 129.391 190.069 128.465 189.77 127.676C189.49 126.93 188.918 125.978 187.501 125.352C186.862 125.071 185.429 124.71 183.395 124.595C176.69 124.218 160.231 125.123 156.827 125.243L150.175 125.878C149.794 125.937 149.238 125.96 148.707 126.214C147.996 126.552 147.204 126.936 146.876 127.377C146.627 127.712 147.177 127.941 146.876 127.865C146.648 127.808 146.929 128.21 146.987 128.073C147.199 127.56 147.277 128.482 147.503 128.3C148.066 127.849 147.484 128.838 148.066 128.822C148.278 128.816 147.939 129.013 148.152 129.051C148.453 129.106 147.853 129.251 148.16 129.422C148.344 129.527 147.847 129.5 148.047 129.685C148.195 129.824 147.623 129.563 147.814 129.818C147.986 130.05 147.587 129.679 147.587 129.679C147.587 129.679 147.657 129.929 147.343 129.332C147.462 129.244 147.48 129.088 147.383 128.98C147.287 128.872 147.11 128.854 146.991 128.94C145.508 127.943 146.773 128.881 146.083 128.749C145.84 128.701 146.114 128.933 145.93 128.95C145.011 129.037 146.344 129.325 145.947 129.774C145.788 129.954 146.228 129.805 146.125 130.027C145.945 130.415 146.586 129.804 146.693 130.394C146.749 130.701 146.933 130.085 147.297 130.606C147.565 130.992 147.195 130.768 148.047 131.119C148.651 131.367 149.97 131.113 150.551 131.229L157.047 131.44C159.739 131.448 170.835 131.283 178.372 131.521Z" fill="#826A45"/>
</svg>
